<?xml version="1.0" encoding="UTF-8"?>
<svg width="328px" height="123px" viewBox="0 0 328 123" version="1.1" xmlns="http://www.w3.org/2000/svg" xmlns:xlink="http://www.w3.org/1999/xlink">
    <!-- Generator: Sketch 61.2 (89653) - https://sketch.com -->
    <title>logo</title>
    <desc>Created with Sketch.</desc>
    <defs>
        <path d="M125.426637,70.644685 C124.967489,70.644685 124.61493,70.4970957 124.368958,70.2019295 C124.122986,69.9231614 124,69.6443934 124,69.3656253 L124,53.6234334 C124,53.3446653 124.122986,53.0576982 124.368958,52.762532 C124.598532,52.4837639 124.951091,52.3443798 125.426637,52.3443798 L133.223987,52.3443798 C134.142282,52.3443798 134.937591,52.500162 135.609914,52.8117263 C136.331432,53.1396888 136.913565,53.5414428 137.356314,54.0169884 C137.815462,54.4925339 138.168021,55.041871 138.413993,55.6649997 C138.643567,56.3045265 138.758354,56.903058 138.758354,57.4605942 C138.758354,58.1329172 138.627169,58.7888421 138.364799,59.4283689 C138.086031,60.1170901 137.643281,60.7156216 137.036551,61.2239634 C137.905651,61.7323052 138.545178,62.3554339 138.955131,63.0933494 C139.332288,63.8148668 139.520867,64.5937776 139.520867,65.4300819 C139.520867,65.9876181 139.40608,66.5861496 139.176506,67.2256764 C138.914136,67.8652032 138.561576,68.4227393 138.118827,68.8982849 C137.65968,69.4066267 137.085745,69.8247789 136.397024,70.1527413 C135.691905,70.4807038 134.896596,70.644685 134.011097,70.644685 L125.426473,70.644685 L125.426637,70.644685 Z M126.435147,54.5583033 L126.435147,60.3632544 L133.22366,60.3632544 C133.699205,60.3632544 134.133755,60.2730647 134.52731,60.0926854 C134.904467,59.912306 135.224231,59.6909314 135.486601,59.4285614 C135.748971,59.1661914 135.953948,58.8628191 136.101533,58.5184444 C136.232718,58.1576857 136.29831,57.8051261 136.29831,57.4607655 C136.29831,57.1164049 136.232717,56.7638471 136.101531,56.4030921 C135.93755,56.0259353 135.732573,55.7143709 135.486601,55.4683991 C135.224231,55.189631 134.904468,54.9682563 134.527311,54.8042751 C134.182951,54.6402939 133.7484,54.5583033 133.22366,54.5583033 L126.435147,54.5583033 L126.435147,54.5583033 Z M126.435147,68.4063575 L134.010933,68.4063575 C134.470081,68.4063575 134.896432,68.3161678 135.289987,68.1357884 C135.634347,67.9718072 135.954111,67.7422335 136.249277,67.4470673 C136.511647,67.1846973 136.716623,66.8649339 136.864206,66.4877771 C136.995391,66.0942221 137.060984,65.7416625 137.060984,65.4300982 C137.060984,65.0857376 136.995391,64.7331779 136.864206,64.3724192 C136.716623,64.0608549 136.519846,63.7656887 136.273874,63.4869206 C136.027902,63.2409487 135.708139,63.0277731 135.314584,62.8473938 C134.970223,62.6834126 134.535673,62.6014219 134.010933,62.6014219 L126.435147,62.6014219 L126.435147,68.4063575 L126.435147,68.4063575 Z M160.034776,70.6446789 L155.041521,63.88042 L149.556369,63.88042 L149.556369,70.6446789 L147.121262,70.6446789 L147.121262,53.6235773 C147.121262,53.3448092 147.244248,53.0578421 147.49022,52.7626759 C147.719793,52.4839078 148.072353,52.3445237 148.547899,52.3445237 L156.001104,52.3445237 C156.82101,52.3445237 157.616319,52.4921068 158.387031,52.787273 C159.141344,53.0824392 159.805468,53.4923923 160.379403,54.0171323 C160.953337,54.5582703 161.412484,55.189598 161.756845,55.9111155 C162.084807,56.649031 162.248789,57.4361409 162.248789,58.2724452 C162.248789,58.8135832 162.158599,59.3793184 161.97822,59.9696509 C161.765044,60.5763814 161.486276,61.1011214 161.141915,61.5438707 C160.781157,62.0194162 160.31381,62.4457674 159.739876,62.8229243 C159.149543,63.2164792 158.47722,63.4952473 157.722907,63.6592285 L162.96211,70.6450515 L160.035039,70.6450515 L160.034776,70.6446789 Z M149.5565,54.5583417 L149.5565,61.6667459 L156.000933,61.6667459 C156.591266,61.6667459 157.124205,61.5683572 157.59975,61.3715797 C158.042499,61.2075985 158.436054,60.9534276 158.780415,60.609067 C159.091979,60.3139008 159.329752,59.9531421 159.493733,59.5267909 C159.657715,59.149634 159.739705,58.7314819 159.739705,58.2723345 C159.739705,57.8295852 159.657715,57.3950349 159.493733,56.9686837 C159.313354,56.5095363 159.075581,56.1077822 158.780415,55.7634217 C158.452453,55.402663 158.058898,55.1156958 157.59975,54.9025202 C157.107806,54.6729465 156.574867,54.5581596 156.000933,54.5581596 L149.5565,54.5581596 L149.5565,54.5583417 Z M172.08746,61.3468546 C172.08746,62.3799364 172.292465,63.3392265 172.702418,64.2247252 C173.128769,65.1594182 173.686305,65.9465281 174.375027,66.5860549 C175.080146,67.2583779 175.883654,67.7913169 176.785551,68.1848719 C177.687447,68.5784268 178.646728,68.7752024 179.663392,68.7752024 C180.712872,68.7752024 181.688561,68.5784249 182.590457,68.18487 C183.459558,67.8405094 184.254867,67.3157695 184.976384,66.6106502 C185.648707,65.9383272 186.181646,65.1512173 186.575201,64.2493205 C186.952358,63.3146275 187.140936,62.3471382 187.140936,61.3468527 C187.140936,60.3301691 186.952358,59.3708789 186.575201,58.4689822 C186.181646,57.5998816 185.648707,56.8373689 184.976384,56.181444 C184.304061,55.5583153 183.508752,55.0581726 182.590457,54.6810158 C181.704959,54.3202571 180.72927,54.1398777 179.663392,54.1398777 C178.466329,54.1398777 177.392252,54.3530533 176.441161,54.7794045 C175.49007,55.2221538 174.694761,55.7878891 174.055234,56.4766102 C173.399309,57.1817295 172.915565,57.9524413 172.604,58.7887456 C172.25964,59.641448 172.08746,60.4941503 172.08746,61.3468527 L172.08746,61.3468546 Z M189.625529,61.3468546 C189.625529,62.7242969 189.35496,63.9951515 188.813822,65.1594182 C188.272684,66.3236849 187.542965,67.3239789 186.624664,68.1603001 C185.722767,69.0294007 184.665088,69.6935246 183.451627,70.1526721 C182.238166,70.6446158 180.975511,70.8905876 179.663661,70.8905876 C178.056645,70.8905876 176.638207,70.5872223 175.408348,69.9804918 C174.162091,69.3901594 173.12081,68.6276466 172.284506,67.6929536 C171.431803,66.7746588 170.784077,65.741577 170.341328,64.5937084 C169.898579,63.478636 169.677204,62.3963599 169.677204,61.3468801 C169.677204,59.9530396 169.955972,58.6903842 170.513508,57.5589137 C171.054646,56.4438413 171.784363,55.4599539 172.702658,54.6072515 C173.604555,53.8037435 174.670433,53.1642167 175.900292,52.6886712 C177.097355,52.2459218 178.351811,52.0245472 179.663661,52.0245472 C181.303473,52.0245472 182.738309,52.3033153 183.968168,52.8608515 C185.214426,53.4183876 186.255706,54.1563032 187.092011,55.0745981 C187.944713,56.0092911 188.576041,57.0095766 188.985994,58.0754546 C189.412345,59.206925 189.625529,60.2974002 189.625529,61.3468801 L189.625529,61.3468546 Z M202.760267,70.1773295 C202.629082,70.4069032 202.465101,70.5872825 202.268323,70.7184675 C202.038749,70.8496525 201.76818,70.915245 201.456616,70.915245 C201.030265,70.915245 200.710501,70.8086572 200.497326,70.5954816 C200.300548,70.3987041 200.161164,70.1691304 200.079174,69.9067604 L196.438771,52.3442035 L198.923108,52.3442035 L201.87476,66.7583221 L207.851877,55.320897 L213.853575,66.7583221 L216.780646,52.3442035 L219.240335,52.3442035 L215.62458,69.9067604 C215.575386,70.1363341 215.436002,70.3659079 215.206428,70.5954816 C214.976854,70.8086572 214.648892,70.915245 214.222541,70.915245 C213.910976,70.915245 213.640407,70.8496525 213.410833,70.7184675 C213.197658,70.5708844 213.041876,70.3905051 212.943487,70.1773295 L207.85184,60.2895417 L202.760267,70.1773295 Z M226.1767,52.3446676 L228.611807,52.3446676 L228.611807,70.6446788 L226.1767,70.6446788 L226.1767,52.3446676 L226.1767,52.3446676 Z M235.941783,54.5583416 L235.941783,52.344602 L250.896701,52.344602 C251.388645,52.344602 251.749404,52.4839861 251.978977,52.7627542 C252.192153,53.0415223 252.298741,53.3284894 252.298741,53.6236556 C252.298741,53.7384425 252.282343,53.8778265 252.249546,54.0418078 C252.21675,54.1565946 252.13476,54.2877796 252.003575,54.4353627 L239.335748,68.4063531 L252.224483,68.4063531 L252.224483,70.6446745 L237.097164,70.6446745 C236.605221,70.6446745 236.252661,70.4970914 236.039485,70.2019252 C235.793513,69.906759 235.670528,69.6197919 235.670528,69.3410238 C235.670528,69.0458576 235.777115,68.7916867 235.990291,68.5785111 L248.658118,54.558357 L235.941127,54.558357 L235.941783,54.5583416 Z M261.05555,70.6446788 L258.374428,70.6446788 L266.49167,52.8363038 C266.557262,52.6395263 266.713044,52.4509479 266.959016,52.2705686 C267.18859,52.0901892 267.467358,51.9999995 267.79532,51.9999995 C268.221672,51.9999995 268.525037,52.0737911 268.705416,52.2213742 C268.885796,52.4017536 269.033379,52.6067301 269.148166,52.8363038 L277.093007,70.6446788 L274.411885,70.6446788 L271.238865,63.6346018 L264.277952,63.6346018 L261.05555,70.6446788 Z M265.23708,61.5684186 L270.328726,61.5684186 L267.795227,55.9110623 L265.23708,61.5684186 Z M296.598343,70.6446788 L291.605089,63.8804199 L286.119937,63.8804199 L286.119937,70.6446788 L283.68483,70.6446788 L283.68483,53.6235773 C283.68483,53.3448092 283.807815,53.0578421 284.053787,52.7626759 C284.283361,52.4839078 284.635921,52.3445237 285.111466,52.3445237 L292.564671,52.3445237 C293.384578,52.3445237 294.179886,52.4921068 294.950598,52.787273 C295.704912,53.0824392 296.369036,53.4923923 296.94297,54.0171323 C297.516905,54.5582703 297.976052,55.189598 298.320413,55.9111155 C298.648375,56.649031 298.812356,57.4361409 298.812356,58.2724452 C298.812356,58.8135832 298.722167,59.3793184 298.541787,59.9696509 C298.328612,60.5763814 298.049844,61.1011214 297.705483,61.5438707 C297.344724,62.0194162 296.877378,62.4457674 296.303443,62.8229243 C295.713111,63.2164792 295.040788,63.4952473 294.286474,63.6592285 L299.525678,70.6450515 L296.598607,70.6450515 L296.598343,70.6446788 Z M286.120068,54.5583416 L286.120068,61.6667459 L292.564501,61.6667459 C293.154833,61.6667459 293.687772,61.5683572 294.163318,61.3715797 C294.606067,61.2075985 294.999622,60.9534275 295.343983,60.609067 C295.655547,60.3139008 295.89332,59.9531421 296.057301,59.5267909 C296.221282,59.149634 296.303273,58.7314819 296.303273,58.2723345 C296.303273,57.8295851 296.221282,57.3950349 296.057301,56.9686837 C295.876922,56.5095362 295.639149,56.1077822 295.343983,55.7634216 C295.01602,55.4026629 294.622465,55.1156958 294.163318,54.9025202 C293.671374,54.6729465 293.138435,54.5581596 292.564501,54.5581596 L286.120068,54.5581596 L286.120068,54.5583416 Z M314.062725,52.3446676 C315.374575,52.3446676 316.629032,52.5660423 317.826095,53.0087916 C319.039556,53.4515409 320.097235,54.0746696 320.999131,54.8781776 C321.917426,55.6980837 322.647143,56.6573739 323.188281,57.7560482 C323.729419,58.8875186 323.999988,60.1255769 323.999988,61.470223 C323.999988,62.8312672 323.729419,64.0611264 323.188281,65.1598007 C322.614347,66.3076693 321.88463,67.2751585 320.999131,68.0622684 C320.080837,68.8821746 319.023158,69.5135023 317.826095,69.9562516 C316.64543,70.4153991 315.390973,70.6449728 314.062725,70.6449728 L308.429951,70.6449728 C307.954405,70.6449728 307.601846,70.4973897 307.372272,70.2022235 C307.1263,69.9234554 307.003314,69.6446873 307.003314,69.3659192 L307.003314,53.6237274 C307.003314,53.3449593 307.1263,53.0579921 307.372272,52.7628259 C307.601846,52.4840578 307.954405,52.3446676 308.429951,52.3446676 L314.062725,52.3446676 L314.062725,52.3446676 Z M309.438198,68.4063574 L314.062463,68.4063574 C315.046351,68.4063574 315.989243,68.2341772 316.891139,67.8898166 C317.776638,67.5618541 318.571947,67.0781095 319.277066,66.4385827 C319.965787,65.8318521 320.515125,65.1021357 320.925078,64.2494333 C321.318633,63.413129 321.51541,62.4866351 321.51541,61.4699514 C321.51541,60.4696659 321.318633,59.5349729 320.925078,58.6658724 C320.498726,57.81317 319.957588,57.0834536 319.301663,56.476723 C318.62934,55.8699925 317.834031,55.3944469 316.915737,55.0500863 C315.981044,54.7221239 315.029952,54.5581426 314.062463,54.5581426 L309.438198,54.5581426 L309.438198,68.4065518 L309.438198,68.4063574 Z" id="path-1"></path>
        <filter x="-2.3%" y="-18.5%" width="105.5%" height="158.2%" filterUnits="objectBoundingBox" id="filter-2">
            <feOffset dx="1" dy="2" in="SourceAlpha" result="shadowOffsetOuter1"></feOffset>
            <feGaussianBlur stdDeviation="1.5" in="shadowOffsetOuter1" result="shadowBlurOuter1"></feGaussianBlur>
            <feColorMatrix values="0 0 0 0 0   0 0 0 0 0   0 0 0 0 0  0 0 0 0.5 0" type="matrix" in="shadowBlurOuter1"></feColorMatrix>
        </filter>
    </defs>
    <g id="Page-1" stroke="none" stroke-width="1" fill="none" fill-rule="evenodd">
        <g id="logo" fill-rule="nonzero">
            <g id="Magic">
                <path d="M51.7756823,49.4441657 L46.4953094,59.1011514 L36.8378122,64.3822915 L46.4953094,69.6634316 L51.7756823,79.3211845 L57.0568224,69.6634316 L66.7143196,64.3822915 L57.0568224,59.1011514 L51.7756823,49.4441657 Z M54.2307181,66.8368159 L51.775938,71.3254397 L49.3216694,66.8368159 L44.8325341,64.3820358 L49.3216694,61.9272557 L51.775938,57.4388876 L54.2307181,61.9272557 L58.7195977,64.3820358 L54.2307181,66.8368159 L54.2307181,66.8368159 Z M32.8401955,44.279384 L36.9291088,51.7577812 L41.0182779,44.2796398 L48.4966751,40.190215 L41.0182779,36.1010459 L36.9291088,28.6229045 L32.8404512,36.1010459 L25.3633327,40.190215 L32.8401955,44.279384 L32.8401955,44.279384 Z M35.667067,38.9276617 L36.9296203,36.6186493 L38.1924294,38.9276617 L40.5016974,40.1904707 L38.1924294,41.4532798 L36.9296203,43.7622921 L35.667067,41.4535355 L33.3577989,40.1904707 L35.667067,38.9276617 Z M3.55289673,63.0082386 L7.3888902,63.0082386 L7.3888902,59.4555972 L10.9407644,59.4555972 L10.9405087,55.6196037 L7.3888902,55.6196037 L7.3888902,52.067218 L3.55289673,52.067218 L3.55289673,55.6201152 L-4.4e-07,55.6201152 L0.0002553,59.4561086 L3.55289673,59.4561086 L3.55289673,63.0082386 Z M17.8959321,18.3669923 L21.4480621,18.3669923 L21.4480621,21.919378 L25.2840555,21.919378 L25.2840555,18.3664808 L28.8359298,18.3664808 L28.835674,14.5304874 L25.2840555,14.5304874 L25.2840555,10.9783574 L21.4480621,10.9783574 L21.4480621,14.5309988 L17.8956764,14.5309988 L17.8959321,18.3669923 Z M9.83804419,38.0929495 C13.3037364,38.0929495 16.1231916,35.2734943 16.1231916,31.8075463 C16.1231916,28.3415983 13.3037364,25.5221431 9.83804419,25.5221431 C6.37209621,25.5221431 3.55264099,28.3415983 3.55264099,31.8075463 C3.55264099,35.2734943 6.37209621,38.0929495 9.83804419,38.0929495 Z M9.83804419,29.3581366 C11.1883139,29.3581366 12.2871982,30.4570208 12.2871982,31.8075463 C12.2871982,33.1580717 11.1883139,34.256956 9.83804419,34.256956 C8.48726301,34.256956 7.38863448,33.1580717 7.38863448,31.8075463 C7.38863448,30.4570208 8.48726301,29.3581366 9.83804418,29.3581366 L9.83804419,29.3581366 Z" id="Stars" fill="#F7CF13"></path>
                <path d="M81.7473223,113.599111 L83.2369664,117.133851 C81.6043676,117.822028 79.8520858,118.460338 78.0287102,119.031389 L78.0287102,119.031389 L76.8822596,115.370828 C78.5897882,114.835835 80.2267345,114.239722 81.7473223,113.599111 L81.7473223,113.599111 Z M61.5291337,22.1416964 L62.6839822,25.0846158 L59.1130559,26.4859042 L57.9582074,23.5429848 L61.5291337,22.1416964 Z M67.2222051,36.6577764 L99.8841552,40.7604993 L50.9665434,-2.3e-07 L40.4017059,26.7350842 L43.9691798,28.1451954 L52.5850769,6.34191993 L87.3644954,35.3215721 L65.627199,32.5913676 L63.7053663,27.6925482 L60.1343121,29.0931973 L61.2930379,32.047168 L79.8930031,79.467208 C75.0371468,84.5874921 66.9117454,90.8452761 51.7754266,90.8452761 C36.661868,90.8452761 28.5382567,84.6056491 23.6793316,79.4894568 L34.2370086,52.7725293 L30.6695347,51.3626739 L19.733373,79.0375767 C9.29435604,83.5896223 3.55238527,90.2918701 3.55238527,97.9595097 C3.55238527,105.769337 9.50533568,112.578992 20.3149096,117.134107 C28.8776142,120.740963 40.0508403,122.727752 51.7756823,122.727752 C59.2827215,122.727752 66.7291521,121.897899 73.3089038,120.327443 L72.4186976,116.5963 C66.1261339,118.097964 58.9876058,118.891759 51.7756823,118.891759 C40.5502867,118.891759 29.906172,117.011866 21.804298,113.599111 C12.5078956,109.681794 7.38837875,104.127531 7.38837875,97.9597654 C7.38837875,92.7865446 10.9916553,88.0457681 17.6384091,84.3396869 L15.9779354,88.5416342 L15.9779354,88.9068208 C15.9779354,94.630123 19.8540789,99.9202138 26.8926155,103.803518 C33.5705687,107.488117 42.4076747,109.516847 51.775938,109.516847 C61.1447128,109.516847 69.9820746,107.488117 76.6600278,103.803518 C83.6985643,99.9204695 87.5747079,94.630123 87.5747079,88.9068208 L87.5747079,88.5441915 L85.9288109,84.3478704 C92.5661026,88.0529286 96.1640088,92.7906363 96.1640088,97.9600211 C96.1640088,104.691422 90.2724342,109.255743 85.3298845,111.899254 L87.138939,115.281833 C95.4328684,110.846146 100.000002,104.694491 100.000002,97.9602769 C100.000002,90.2997979 94.2697952,83.6036876 83.8512369,79.051642 L67.2222051,36.6577764 Z M74.8067314,100.444466 C68.6865317,103.820908 60.5076821,105.680597 51.7756823,105.680597 C43.0444497,105.680597 34.8656001,103.821163 28.7454003,100.444466 C23.1425483,97.3534227 19.9883387,93.3913529 19.8208336,89.2538503 L22.1436556,83.3755739 C30.0112782,90.9751884 39.7355217,94.6810139 51.7756823,94.6810139 C63.8235149,94.6810139 73.5521058,90.970841 81.4217743,83.3627872 L83.7315539,89.2515487 C83.5650718,93.3900742 80.4108622,97.3529112 74.8067314,100.444466 L74.8067314,100.444466 Z" id="Hat" fill="#002CA3"></path>
            </g>
            <g id="Text" fill="black" fill-opacity="1">
                <use filter="url(#filter-2)" xlink:href="#path-1"></use>
            </g>
        </g>
    </g>
</svg>